# xmcd CD database file
#
# Track frame offsets:
#	150
#	69116
#	82016
#	105575
#	124759
#	163585
#	175942
#	182801
#	195014
#	240915
#	261801
#
# Disc length: 4033 seconds
#
# Revision: 0
# Processed by: cddbd v1.5.2PL0 Copyright (c) Steve Scherf et al.
# Submitted via: CDex 1.51
#
DISCID=810fbf0b
DTITLE=Aurio Corrá - Reiki - The Healing Hands
DYEAR=2000
DGENRE=New Age
TTITLE0=01 - Luz Sagrada - Parte I
TTITLE1=02 - Luz Sagrada - Parte II
TTITLE2=03 - Luz Sagrada - Parte III
TTITLE3=04 - Luz Sagrada - Parte IV
TTITLE4=05 - Luz Sagrada - Parte V
TTITLE5=06 - Luz Sagrada - Parte VI
TTITLE6=07 - Luz Sagrada - Parte VII
TTITLE7=08 - Luz Sagrada - Parte VIII
TTITLE8=09 - Luz Sagrada - Parte IX
TTITLE9=10 - Luz Sagrada - Parte X
TTITLE10=11 - Luz Sagrada - Parte XI
EXTD=YEAR: 2000
EXTT0=
EXTT1=
EXTT2=
EXTT3=
EXTT4=
EXTT5=
EXTT6=
EXTT7=
EXTT8=
EXTT9=
EXTT10=
PLAYORDER=
